<svg version="1.1" id="Layer_1" xmlns="http://www.w3.org/2000/svg" xmlns:xlink="http://www.w3.org/1999/xlink" x="0px" y="0px"
	 width="100%" viewBox="0 0 1241 1242" enable-background="new 0 0 1241 1242" xml:space="preserve">
<path fill="#FFFFFF" opacity="1.000000" stroke="none" 
	d="
M726.000000,1243.000000 
	C484.000000,1243.000000 242.500000,1243.000000 1.000000,1243.000000 
	C1.000000,829.000000 1.000000,415.000000 1.000000,1.000000 
	C414.666656,1.000000 828.333313,1.000000 1242.000000,1.000000 
	C1242.000000,415.000000 1242.000000,829.000000 1242.000000,1243.000000 
	C1070.166626,1243.000000 898.333313,1243.000000 726.000000,1243.000000 
M1055.519775,948.412659 
	C1019.457703,959.145203 985.031555,973.729919 952.038818,991.763489 
	C962.892334,1005.913635 973.416504,1019.636292 983.950012,1033.351807 
	C984.138916,1033.597778 984.439148,1033.758301 984.918579,1034.145264 
	C985.970764,1033.189819 987.140808,1032.288452 988.120422,1031.213379 
	C1001.572998,1016.449097 1015.491760,1002.071777 1028.274536,986.747437 
	C1038.255493,974.782043 1046.817749,961.633301 1056.417114,948.798401 
	C1056.287720,948.647400 1056.158447,948.496399 1056.029175,948.345337 
	C1056.065308,948.590332 1056.101440,948.835327 1055.519775,948.412659 
M1057.057861,359.411591 
	C1057.182861,359.449463 1057.307983,359.487366 1057.432983,359.525238 
	C1057.312256,359.329773 1057.191406,359.134308 1056.984375,358.243408 
	C1056.662964,357.665802 1056.382935,357.060181 1056.014160,356.514587 
	C1032.636230,321.922455 1005.720825,290.405304 974.893616,262.184631 
	C953.260620,242.380783 930.360901,224.258957 905.688293,208.435989 
	C902.952637,206.681564 898.687317,205.898575 895.492004,206.519806 
	C881.832336,209.175491 868.226685,212.211884 854.748779,215.681931 
	C808.640564,227.552963 762.667358,239.954895 716.498962,251.583847 
	C685.852173,259.303192 654.474548,262.587524 622.955139,263.778748 
	C597.194031,264.752350 571.415344,264.122681 545.761719,261.062683 
	C531.124695,259.316803 516.363770,258.226868 501.891785,255.571045 
	C480.551666,251.654800 459.398438,246.699371 438.220367,241.942688 
	C434.859680,241.187851 433.250427,241.948074 431.439819,244.758560 
	C419.911194,262.653809 408.160492,280.405823 396.533447,298.237976 
	C394.113800,301.948944 391.906067,305.798065 389.354431,309.987854 
	C391.214050,310.865784 392.471924,311.602753 393.822235,312.075317 
	C409.973572,317.727539 426.033051,323.669647 442.321381,328.897614 
	C480.199432,341.055115 519.156433,346.746063 558.890259,346.932770 
	C574.854614,347.007782 590.835632,346.627777 606.784790,345.912506 
	C621.034363,345.273438 635.293823,344.284943 649.471069,342.737457 
	C670.046204,340.491669 690.554504,337.629517 711.085205,334.982513 
	C726.695129,332.969940 742.288696,330.829895 757.901978,328.844025 
	C773.677612,326.837494 789.439575,324.658813 805.260681,323.091980 
	C821.926758,321.441498 838.638062,319.703308 855.361145,319.294952 
	C883.438660,318.609344 911.597534,317.573456 939.515991,322.117523 
	C972.608643,327.503754 1004.545105,336.893860 1035.367432,350.092621 
	C1042.525024,353.157623 1049.739502,356.089417 1057.057861,359.411591 
M248.189453,676.164001 
	C193.745712,673.501709 139.470535,675.116638 84.564041,682.047058 
	C87.001427,703.403809 89.367813,724.138367 91.771172,745.196899 
	C239.489517,741.289673 377.286407,774.117432 504.890839,847.034424 
	C632.528442,919.970337 731.580994,1021.458862 803.370789,1149.844360 
	C859.117371,1128.618774 909.593140,1099.093384 955.259399,1061.060425 
	C954.493713,1059.942261 954.047241,1059.252075 953.563354,1058.589111 
	C900.877380,986.392578 839.057251,923.088074 768.304016,868.510315 
	C676.583862,797.759033 575.119141,746.028320 464.060577,713.168030 
	C416.773621,699.176636 368.687683,688.755249 319.698761,682.936218 
	C296.239624,680.149719 272.657898,678.394897 248.189453,676.164001 
M597.039795,959.458679 
	C453.465363,839.677246 287.930389,782.221497 101.137512,783.848755 
	C101.209946,785.262512 101.125542,785.788452 101.275726,786.235657 
	C109.308441,810.153748 117.280663,834.093262 125.577362,857.919678 
	C126.183372,859.660095 129.018265,861.429199 131.045547,861.752930 
	C193.454712,871.716797 252.743546,891.165222 308.809357,920.281921 
	C384.373749,959.524841 448.504913,1012.681519 501.321777,1079.463135 
	C525.655334,1110.230469 546.537537,1143.206909 564.295959,1178.183472 
	C565.113464,1179.793701 567.138855,1181.690796 568.756653,1181.846680 
	C578.358093,1182.772339 587.997070,1183.472534 597.638611,1183.788452 
	C628.491089,1184.799805 659.230835,1183.244873 689.802979,1178.922363 
	C715.182861,1175.333984 740.206299,1170.048950 765.204407,1162.593872 
	C721.282776,1084.900513 665.304932,1017.567505 597.039795,959.458679 
M1055.241943,471.203125 
	C1076.645874,477.305634 1098.049805,483.408142 1120.062500,489.684204 
	C1119.753784,488.007141 1119.701294,486.711304 1119.273560,485.554260 
	C1114.899902,473.726807 1110.604980,461.866180 1105.939941,450.153534 
	C1104.903442,447.551331 1102.940918,444.857574 1100.661011,443.282532 
	C1078.900635,428.248871 1056.038452,415.156219 1032.053101,403.916748 
	C1006.703674,392.038055 980.576050,382.553741 953.315002,376.274506 
	C933.754883,371.769073 913.927307,368.809387 893.816101,369.087280 
	C875.235962,369.344025 856.660645,370.214905 838.093750,371.050018 
	C828.839417,371.466248 819.583923,372.177277 810.373169,373.166656 
	C797.238892,374.577423 784.143433,376.352264 771.034668,377.997833 
	C757.265198,379.726349 743.491699,381.426208 729.734314,383.247314 
	C713.201599,385.435852 696.710022,387.957245 680.152039,389.926147 
	C666.037659,391.604553 651.872070,392.936737 637.697693,394.005219 
	C617.393433,395.535736 597.072571,396.949219 576.734375,397.877380 
	C567.980408,398.276886 559.150513,397.551514 550.380920,396.955994 
	C533.217224,395.790558 516.030945,394.743988 498.928741,392.939270 
	C476.497620,390.572235 454.588287,385.425720 433.014008,378.874390 
	C426.643311,376.939850 420.282990,374.971130 413.917908,373.018097 
	C419.707916,378.804199 425.994446,383.664917 431.630859,389.188965 
	C447.143951,404.392700 463.126221,419.217773 477.501160,435.451569 
	C489.251404,448.721252 498.377228,464.159424 504.507050,481.037262 
	C509.097351,493.676208 513.373047,506.429596 517.992126,519.057678 
	C518.557434,520.603088 520.238098,522.606506 521.648804,522.828552 
	C528.169800,523.854553 534.768555,524.761047 541.357056,524.905518 
	C555.093018,525.206726 568.853882,525.386597 582.578857,524.896118 
	C597.127197,524.376221 611.698486,523.500427 626.163391,521.905884 
	C643.230713,520.024597 660.351746,517.989624 677.169373,514.622375 
	C707.815613,508.486267 738.271484,501.390900 768.776184,494.559235 
	C793.157166,489.099060 817.378784,482.858643 841.880737,478.027832 
	C865.847717,473.302521 890.014526,469.446960 914.218750,466.120148 
	C930.251160,463.916534 946.487061,462.593353 962.663208,462.213715 
	C977.381653,461.868317 992.205933,462.694122 1006.867371,464.163605 
	C1022.785767,465.759033 1038.569946,468.693726 1055.241943,471.203125 
M453.058258,491.412506 
	C445.549286,475.826263 435.669006,461.886658 423.468323,449.659271 
	C384.135529,410.240509 335.787201,396.243500 281.366882,399.617615 
	C276.042633,399.947723 270.739380,400.616516 264.670807,401.200836 
	C266.095093,399.053925 266.993896,397.684021 267.907501,396.324066 
	C305.852264,339.841461 343.813019,283.369598 381.675293,226.831741 
	C382.841339,225.090515 384.111481,221.923096 383.331665,220.741486 
	C382.283600,219.153442 379.293915,218.137970 377.123016,218.112198 
	C359.962433,217.908630 342.797424,218.095032 325.636139,217.923935 
	C321.869263,217.886383 319.595978,219.139099 317.490723,222.285797 
	C282.893677,273.997681 248.179230,325.631012 213.486588,377.278931 
	C192.893555,407.936401 172.367279,438.639038 151.675476,469.229706 
	C128.600861,503.343079 119.852951,541.169373 121.888206,581.904175 
	C122.848557,601.125305 126.279694,619.809204 133.166534,637.749939 
	C154.707153,636.974792 176.002228,636.208496 197.614258,635.430786 
	C195.944412,632.397400 194.419022,629.830200 193.083160,627.167847 
	C180.689621,602.467957 178.251373,576.231018 182.102478,549.351807 
	C187.492203,511.733551 207.094345,484.048798 241.716003,467.656067 
	C263.376068,457.400421 286.444153,455.212891 309.981293,457.190796 
	C337.282227,459.484985 361.203186,469.510956 380.558319,489.401459 
	C401.393982,510.813446 410.382019,536.913696 411.084320,566.308960 
	C411.839966,597.934082 404.133514,626.598267 381.773743,650.148438 
	C381.495575,650.441406 381.519012,651.020752 381.502991,651.081543 
	C400.810425,655.833496 420.028473,660.411682 439.140015,665.398193 
	C442.859131,666.368591 444.673431,665.888000 446.647614,662.549622 
	C460.379211,639.329529 467.587341,614.138916 469.480438,587.387329 
	C471.818085,554.353271 468.010590,522.290588 453.058258,491.412506 
M1107.527466,776.994019 
	C1114.186523,776.846436 1120.850098,776.491882 1127.502808,776.636963 
	C1130.923950,776.711548 1132.503174,775.886841 1133.146118,772.244751 
	C1135.168335,760.788513 1137.811768,749.441223 1139.802002,737.980164 
	C1141.354492,729.040039 1142.291260,719.993103 1143.548950,710.640747 
	C1067.621216,703.264648 992.784851,705.046387 918.143921,715.893677 
	C843.759460,726.703735 771.767944,746.193298 701.952759,774.574707 
	C702.485657,775.346497 702.547974,775.529846 702.674805,775.607300 
	C737.949280,797.138000 771.765991,820.750916 804.179077,846.391785 
	C805.342590,847.312134 807.952576,847.501282 809.356445,846.862366 
	C864.661194,821.693176 922.111084,803.233093 981.706116,791.425903 
	C1022.927917,783.258911 1064.533569,778.400757 1107.527466,776.994019 
M279.007660,949.504700 
	C237.436905,929.092712 193.964401,914.328613 147.803802,904.837830 
	C186.676895,975.832947 237.940842,1034.730103 302.515198,1081.957397 
	C367.021790,1129.135376 438.588654,1160.005249 517.780762,1175.107544 
	C516.744690,1173.159180 516.156189,1171.973145 515.498474,1170.827026 
	C482.075226,1112.586548 439.295074,1062.230835 387.581055,1019.469666 
	C354.374115,992.011536 318.441193,968.718140 279.007660,949.504700 
M589.654236,213.915070 
	C607.593994,213.309341 625.630188,213.655838 643.448608,211.851685 
	C664.695312,209.700424 686.044983,206.972366 706.830261,202.220520 
	C740.138550,194.605698 773.019714,185.122299 806.080566,176.425385 
	C814.965454,174.088120 823.847351,171.739044 834.150635,169.020752 
	C768.238159,139.158722 700.473877,123.948036 629.824707,122.123596 
	C545.062195,119.934700 464.159943,136.813416 386.486938,173.763977 
	C452.587433,197.296356 519.476196,211.425537 589.654236,213.915070 
M969.832092,834.317322 
	C925.575317,844.466675 882.531006,858.307556 841.442505,876.107300 
	C869.787781,904.158264 898.107117,932.183594 926.824463,960.602783 
	C926.086975,960.799072 926.438843,960.777161 926.715515,960.621582 
	C975.836426,932.978210 1027.926025,913.032776 1082.793457,900.215820 
	C1084.541260,899.807556 1086.593140,898.121460 1087.359741,896.492798 
	C1094.709229,880.879639 1102.103394,865.274902 1108.884521,849.411255 
	C1113.484497,838.650513 1117.124756,827.479553 1121.371826,816.012878 
	C1069.915283,817.055420 1019.982788,823.100647 969.832092,834.317322 
M880.695374,548.227295 
	C867.981079,571.047607 868.301147,594.122742 882.069275,615.880188 
	C895.897766,637.732727 916.900574,646.968140 942.730469,644.151367 
	C967.967651,641.399231 985.981567,628.071411 995.136108,604.584656 
	C1004.055969,581.699890 1000.911804,559.601562 985.133728,540.380493 
	C957.245178,506.406281 903.542480,510.824982 880.695374,548.227295 
M725.801147,548.663269 
	C691.498535,541.121399 656.786926,562.432983 649.027405,595.799316 
	C641.074585,629.997070 662.169128,665.133179 695.374146,672.997009 
	C730.248596,681.256287 765.718872,660.138855 773.808533,626.300842 
	C782.086792,591.673767 761.310669,557.576477 725.801147,548.663269 
M1074.435547,525.939880 
	C1063.190796,535.923950 1051.946045,545.908081 1040.842407,555.766968 
	C1040.842407,543.870911 1040.776489,532.276489 1040.875000,520.683411 
	C1040.914062,516.097534 1038.968994,513.889893 1034.316162,513.971313 
	C1030.487915,514.038452 1026.647705,514.019287 1022.827148,513.794373 
	C1018.075623,513.514709 1015.840088,515.253662 1015.735718,520.336182 
	C1014.987183,556.776733 1014.031982,593.213013 1013.236633,629.652710 
	C1013.162415,633.053162 1014.968079,635.369080 1018.675598,635.510559 
	C1023.499207,635.694702 1028.326904,635.907532 1033.151611,635.882996 
	C1036.527344,635.865784 1038.324585,633.836426 1038.493774,630.519287 
	C1038.688721,626.697449 1038.808838,622.868164 1038.827515,619.041504 
	C1038.873413,609.647400 1038.842529,600.253052 1038.842529,589.750061 
	C1040.693115,591.152649 1041.387207,591.561707 1041.937988,592.113770 
	C1052.293823,602.491333 1063.029541,612.526794 1072.853027,623.387268 
	C1081.109497,632.515259 1089.484985,640.016724 1102.969482,637.222534 
	C1104.058228,636.996948 1105.399048,637.775269 1106.413086,637.444580 
	C1108.774658,636.674622 1112.384399,635.991028 1112.942505,634.386841 
	C1113.626587,632.419983 1112.414185,628.895569 1110.808594,627.179932 
	C1102.274658,618.061401 1093.427246,609.231689 1084.559937,600.431213 
	C1075.606812,591.545532 1066.503662,582.811035 1057.239746,573.789734 
	C1074.640625,558.261475 1091.317749,543.466492 1107.864746,528.527588 
	C1110.640991,526.021240 1115.403809,524.139832 1113.570923,519.071594 
	C1111.732788,513.988953 1106.880371,516.130615 1103.168945,515.408508 
	C1091.713501,513.179810 1082.285400,516.290771 1074.435547,525.939880 
M572.519043,684.084412 
	C554.006592,671.199097 549.297363,647.575378 561.567139,629.144531 
	C573.361755,611.427429 595.892029,607.876282 615.349854,620.671448 
	C618.378052,622.662781 621.026123,622.178589 623.226379,619.384705 
	C625.491150,616.508850 627.679382,613.572327 629.876038,610.643433 
	C633.455566,605.870789 633.220947,603.610046 628.498047,599.744934 
	C617.274475,590.559753 604.305481,586.969177 589.947388,587.821594 
	C556.374023,589.814758 529.578308,616.567261 529.299500,649.719360 
	C529.022217,682.701660 552.615295,712.158020 587.241089,715.370422 
	C618.502869,718.270630 649.086426,696.432434 655.186951,666.453857 
	C657.413452,655.512695 656.416321,654.173950 645.181702,653.020752 
	C633.603333,651.832275 633.603577,651.832214 630.477356,663.033264 
	C630.432739,663.193176 630.347961,663.341919 630.304810,663.502075 
	C624.424927,685.306030 595.273560,698.880798 572.519043,684.084412 
M798.926392,558.179321 
	C801.377380,557.979614 803.828308,557.779846 806.370544,557.572693 
	C806.604858,558.532471 806.821350,559.152588 806.902527,559.789917 
	C810.579468,588.658203 814.238037,617.528870 817.916687,646.396912 
	C818.656128,652.200012 820.396057,653.528259 826.181335,652.784058 
	C829.645142,652.338501 833.111145,651.897400 836.559814,651.351074 
	C842.561584,650.400269 843.628479,649.114441 842.887634,643.054993 
	C841.151917,628.859131 839.272095,614.680969 837.469360,600.493225 
	C835.524170,585.183472 833.600342,569.871094 831.620239,554.188110 
	C842.496460,552.768005 853.012268,551.379395 863.532715,550.027771 
	C869.014160,549.323486 870.439392,547.633240 869.855103,542.143311 
	C869.485596,538.671753 869.045471,535.203735 868.500427,531.755737 
	C867.566284,525.846313 865.935730,524.699097 860.164246,525.491882 
	C855.881653,526.080139 851.581848,526.542725 847.293518,527.091187 
	C821.726135,530.360840 796.164795,533.679504 770.588440,536.877014 
	C766.107178,537.437256 764.572021,539.866333 765.088623,544.022217 
	C765.580811,547.981445 766.275513,551.918640 766.663391,555.886841 
	C767.100525,560.359009 769.571838,561.942627 773.779541,561.408020 
	C781.860535,560.381348 789.940491,559.346191 798.926392,558.179321 
z"/>
<path fill="#39A935" opacity="1.000000" stroke="none" 
	d="
M248.660583,676.168396 
	C272.657898,678.394897 296.239624,680.149719 319.698761,682.936218 
	C368.687683,688.755249 416.773621,699.176636 464.060577,713.168030 
	C575.119141,746.028320 676.583862,797.759033 768.304016,868.510315 
	C839.057251,923.088074 900.877380,986.392578 953.563354,1058.589111 
	C954.047241,1059.252075 954.493713,1059.942261 955.259399,1061.060425 
	C909.593140,1099.093384 859.117371,1128.618774 803.370789,1149.844360 
	C731.580994,1021.458862 632.528442,919.970337 504.890839,847.034424 
	C377.286407,774.117432 239.489517,741.289673 91.771172,745.196899 
	C89.367813,724.138367 87.001427,703.403809 84.564041,682.047058 
	C139.470535,675.116638 193.745712,673.501709 248.660583,676.168396 
z"/>
<path fill="#008D36" opacity="1.000000" stroke="none" 
	d="
M597.300293,959.700745 
	C665.304932,1017.567505 721.282776,1084.900513 765.204407,1162.593872 
	C740.206299,1170.048950 715.182861,1175.333984 689.802979,1178.922363 
	C659.230835,1183.244873 628.491089,1184.799805 597.638611,1183.788452 
	C587.997070,1183.472534 578.358093,1182.772339 568.756653,1181.846680 
	C567.138855,1181.690796 565.113464,1179.793701 564.295959,1178.183472 
	C546.537537,1143.206909 525.655334,1110.230469 501.321777,1079.463135 
	C448.504913,1012.681519 384.373749,959.524841 308.809357,920.281921 
	C252.743546,891.165222 193.454712,871.716797 131.045547,861.752930 
	C129.018265,861.429199 126.183372,859.660095 125.577362,857.919678 
	C117.280663,834.093262 109.308441,810.153748 101.275726,786.235657 
	C101.125542,785.788452 101.209946,785.262512 101.137512,783.848755 
	C287.930389,782.221497 453.465363,839.677246 597.300293,959.700745 
z"/>
<path fill="#E2ECF2" opacity="1.000000" stroke="none" 
	d="
M1054.827271,471.123779 
	C1038.569946,468.693726 1022.785767,465.759033 1006.867371,464.163605 
	C992.205933,462.694122 977.381653,461.868317 962.663208,462.213715 
	C946.487061,462.593353 930.251160,463.916534 914.218750,466.120148 
	C890.014526,469.446960 865.847717,473.302521 841.880737,478.027832 
	C817.378784,482.858643 793.157166,489.099060 768.776184,494.559235 
	C738.271484,501.390900 707.815613,508.486267 677.169373,514.622375 
	C660.351746,517.989624 643.230713,520.024597 626.163391,521.905884 
	C611.698486,523.500427 597.127197,524.376221 582.578857,524.896118 
	C568.853882,525.386597 555.093018,525.206726 541.357056,524.905518 
	C534.768555,524.761047 528.169800,523.854553 521.648804,522.828552 
	C520.238098,522.606506 518.557434,520.603088 517.992126,519.057678 
	C513.373047,506.429596 509.097351,493.676208 504.507050,481.037262 
	C498.377228,464.159424 489.251404,448.721252 477.501160,435.451569 
	C463.126221,419.217773 447.143951,404.392700 431.630859,389.188965 
	C425.994446,383.664917 419.707916,378.804199 413.917908,373.018097 
	C420.282990,374.971130 426.643311,376.939850 433.014008,378.874390 
	C454.588287,385.425720 476.497620,390.572235 498.928741,392.939270 
	C516.030945,394.743988 533.217224,395.790558 550.380920,396.955994 
	C559.150513,397.551514 567.980408,398.276886 576.734375,397.877380 
	C597.072571,396.949219 617.393433,395.535736 637.697693,394.005219 
	C651.872070,392.936737 666.037659,391.604553 680.152039,389.926147 
	C696.710022,387.957245 713.201599,385.435852 729.734314,383.247314 
	C743.491699,381.426208 757.265198,379.726349 771.034668,377.997833 
	C784.143433,376.352264 797.238892,374.577423 810.373169,373.166656 
	C819.583923,372.177277 828.839417,371.466248 838.093750,371.050018 
	C856.660645,370.214905 875.235962,369.344025 893.816101,369.087280 
	C913.927307,368.809387 933.754883,371.769073 953.315002,376.274506 
	C980.576050,382.553741 1006.703674,392.038055 1032.053101,403.916748 
	C1056.038452,415.156219 1078.900635,428.248871 1100.661011,443.282532 
	C1102.940918,444.857574 1104.903442,447.551331 1105.939941,450.153534 
	C1110.604980,461.866180 1114.899902,473.726807 1119.273560,485.554260 
	C1119.701294,486.711304 1119.753784,488.007141 1120.062500,489.684204 
	C1098.049805,483.408142 1076.645874,477.305634 1054.827271,471.123779 
z"/>
<path fill="#A2D6F2" opacity="1.000000" stroke="none" 
	d="
M1056.927856,359.082489 
	C1049.739502,356.089417 1042.525024,353.157623 1035.367432,350.092621 
	C1004.545105,336.893860 972.608643,327.503754 939.515991,322.117523 
	C911.597534,317.573456 883.438660,318.609344 855.361145,319.294952 
	C838.638062,319.703308 821.926758,321.441498 805.260681,323.091980 
	C789.439575,324.658813 773.677612,326.837494 757.901978,328.844025 
	C742.288696,330.829895 726.695129,332.969940 711.085205,334.982513 
	C690.554504,337.629517 670.046204,340.491669 649.471069,342.737457 
	C635.293823,344.284943 621.034363,345.273438 606.784790,345.912506 
	C590.835632,346.627777 574.854614,347.007782 558.890259,346.932770 
	C519.156433,346.746063 480.199432,341.055115 442.321381,328.897614 
	C426.033051,323.669647 409.973572,317.727539 393.822235,312.075317 
	C392.471924,311.602753 391.214050,310.865784 389.354431,309.987854 
	C391.906067,305.798065 394.113800,301.948944 396.533447,298.237976 
	C408.160492,280.405823 419.911194,262.653809 431.439819,244.758560 
	C433.250427,241.948074 434.859680,241.187851 438.220367,241.942688 
	C459.398438,246.699371 480.551666,251.654800 501.891785,255.571045 
	C516.363770,258.226868 531.124695,259.316803 545.761719,261.062683 
	C571.415344,264.122681 597.194031,264.752350 622.955139,263.778748 
	C654.474548,262.587524 685.852173,259.303192 716.498962,251.583847 
	C762.667358,239.954895 808.640564,227.552963 854.748779,215.681931 
	C868.226685,212.211884 881.832336,209.175491 895.492004,206.519806 
	C898.687317,205.898575 902.952637,206.681564 905.688293,208.435989 
	C930.360901,224.258957 953.260620,242.380783 974.893616,262.184631 
	C1005.720825,290.405304 1032.636230,321.922455 1056.014160,356.514587 
	C1056.382935,357.060181 1056.662964,357.665802 1056.990479,358.625671 
	C1056.996460,359.007904 1056.927856,359.082489 1056.927856,359.082489 
z"/>
<path fill="#016734" opacity="1.000000" stroke="none" 
	d="
M453.221497,491.750916 
	C468.010590,522.290588 471.818085,554.353271 469.480438,587.387329 
	C467.587341,614.138916 460.379211,639.329529 446.647614,662.549622 
	C444.673431,665.888000 442.859131,666.368591 439.140015,665.398193 
	C420.028473,660.411682 400.810425,655.833496 381.502991,651.081543 
	C381.519012,651.020752 381.495575,650.441406 381.773743,650.148438 
	C404.133514,626.598267 411.839966,597.934082 411.084320,566.308960 
	C410.382019,536.913696 401.393982,510.813446 380.558319,489.401459 
	C361.203186,469.510956 337.282227,459.484985 309.981293,457.190796 
	C286.444153,455.212891 263.376068,457.400421 241.716003,467.656067 
	C207.094345,484.048798 187.492203,511.733551 182.102478,549.351807 
	C178.251373,576.231018 180.689621,602.467957 193.083160,627.167847 
	C194.419022,629.830200 195.944412,632.397400 197.614258,635.430786 
	C176.002228,636.208496 154.707153,636.974792 133.166534,637.749939 
	C126.279694,619.809204 122.848557,601.125305 121.888206,581.904175 
	C119.852951,541.169373 128.600861,503.343079 151.675476,469.229706 
	C172.367279,438.639038 192.893555,407.936401 213.486588,377.278931 
	C248.179230,325.631012 282.893677,273.997681 317.490723,222.285797 
	C319.595978,219.139099 321.869263,217.886383 325.636139,217.923935 
	C342.797424,218.095032 359.962433,217.908630 377.123016,218.112198 
	C379.293915,218.137970 382.283600,219.153442 383.331665,220.741486 
	C384.111481,221.923096 382.841339,225.090515 381.675293,226.831741 
	C343.813019,283.369598 305.852264,339.841461 267.907501,396.324066 
	C266.993896,397.684021 266.095093,399.053925 264.670807,401.200836 
	C270.739380,400.616516 276.042633,399.947723 281.366882,399.617615 
	C335.787201,396.243500 384.135529,410.240509 423.468323,449.659271 
	C435.669006,461.886658 445.549286,475.826263 453.221497,491.750916 
z"/>
<path fill="#3AA936" opacity="1.000000" stroke="none" 
	d="
M1107.032715,776.996948 
	C1064.533569,778.400757 1022.927917,783.258911 981.706116,791.425903 
	C922.111084,803.233093 864.661194,821.693176 809.356445,846.862366 
	C807.952576,847.501282 805.342590,847.312134 804.179077,846.391785 
	C771.765991,820.750916 737.949280,797.138000 702.674805,775.607300 
	C702.547974,775.529846 702.485657,775.346497 701.952759,774.574707 
	C771.767944,746.193298 843.759460,726.703735 918.143921,715.893677 
	C992.784851,705.046387 1067.621216,703.264648 1143.548950,710.640747 
	C1142.291260,719.993103 1141.354492,729.040039 1139.802002,737.980164 
	C1137.811768,749.441223 1135.168335,760.788513 1133.146118,772.244751 
	C1132.503174,775.886841 1130.923950,776.711548 1127.502808,776.636963 
	C1120.850098,776.491882 1114.186523,776.846436 1107.032715,776.996948 
z"/>
<path fill="#016634" opacity="1.000000" stroke="none" 
	d="
M279.338623,949.680115 
	C318.441193,968.718140 354.374115,992.011536 387.581055,1019.469666 
	C439.295074,1062.230835 482.075226,1112.586548 515.498474,1170.827026 
	C516.156189,1171.973145 516.744690,1173.159180 517.780762,1175.107544 
	C438.588654,1160.005249 367.021790,1129.135376 302.515198,1081.957397 
	C237.940842,1034.730103 186.676895,975.832947 147.803802,904.837830 
	C193.964401,914.328613 237.436905,929.092712 279.338623,949.680115 
z"/>
<path fill="#86C3EC" opacity="1.000000" stroke="none" 
	d="
M589.174805,213.914948 
	C519.476196,211.425537 452.587433,197.296356 386.486938,173.763977 
	C464.159943,136.813416 545.062195,119.934700 629.824707,122.123596 
	C700.473877,123.948036 768.238159,139.158722 834.150635,169.020752 
	C823.847351,171.739044 814.965454,174.088120 806.080566,176.425385 
	C773.019714,185.122299 740.138550,194.605698 706.830261,202.220520 
	C686.044983,206.972366 664.695312,209.700424 643.448608,211.851685 
	C625.630188,213.655838 607.593994,213.309341 589.174805,213.914948 
z"/>
<path fill="#018D37" opacity="1.000000" stroke="none" 
	d="
M970.239624,834.228943 
	C1019.982788,823.100647 1069.915283,817.055420 1121.371826,816.012878 
	C1117.124756,827.479553 1113.484497,838.650513 1108.884521,849.411255 
	C1102.103394,865.274902 1094.709229,880.879639 1087.359741,896.492798 
	C1086.593140,898.121460 1084.541260,899.807556 1082.793457,900.215820 
	C1027.926025,913.032776 975.836426,932.978210 926.715515,960.621582 
	C926.438843,960.777161 926.086975,960.799072 926.824463,960.602783 
	C898.107117,932.183594 869.787781,904.158264 841.442505,876.107300 
	C882.531006,858.307556 925.575317,844.466675 970.239624,834.228943 
z"/>
<path fill="#026735" opacity="1.000000" stroke="none" 
	d="
M880.868530,547.906494 
	C903.542480,510.824982 957.245178,506.406281 985.133728,540.380493 
	C1000.911804,559.601562 1004.055969,581.699890 995.136108,604.584656 
	C985.981567,628.071411 967.967651,641.399231 942.730469,644.151367 
	C916.900574,646.968140 895.897766,637.732727 882.069275,615.880188 
	C868.301147,594.122742 867.981079,571.047607 880.868530,547.906494 
M899.552063,594.731262 
	C907.644226,615.444031 928.735718,624.997131 949.717407,617.452942 
	C968.719421,610.620667 978.846375,588.961243 972.486816,568.754089 
	C966.223938,548.854004 945.246033,537.954712 924.581543,543.864441 
	C903.504272,549.892212 892.806580,571.045532 899.552063,594.731262 
z"/>
<path fill="#026735" opacity="1.000000" stroke="none" 
	d="
M726.209351,548.757812 
	C761.310669,557.576477 782.086792,591.673767 773.808533,626.300842 
	C765.718872,660.138855 730.248596,681.256287 695.374146,672.997009 
	C662.169128,665.133179 641.074585,629.997070 649.027405,595.799316 
	C656.786926,562.432983 691.498535,541.121399 726.209351,548.757812 
M739.065063,638.578003 
	C740.148804,637.314392 741.306396,636.106384 742.305054,634.778748 
	C754.650513,618.366455 752.197205,594.834412 736.774841,581.516113 
	C721.228210,568.090515 697.871277,568.983154 683.819763,583.539856 
	C669.449768,598.426514 669.100220,622.701477 683.043762,637.428040 
	C698.308167,653.549622 721.444519,654.237610 739.065063,638.578003 
z"/>
<path fill="#026735" opacity="1.000000" stroke="none" 
	d="
M1074.689941,525.694702 
	C1082.285400,516.290771 1091.713501,513.179810 1103.168945,515.408508 
	C1106.880371,516.130615 1111.732788,513.988953 1113.570923,519.071594 
	C1115.403809,524.139832 1110.640991,526.021240 1107.864746,528.527588 
	C1091.317749,543.466492 1074.640625,558.261475 1057.239746,573.789734 
	C1066.503662,582.811035 1075.606812,591.545532 1084.559937,600.431213 
	C1093.427246,609.231689 1102.274658,618.061401 1110.808594,627.179932 
	C1112.414185,628.895569 1113.626587,632.419983 1112.942505,634.386841 
	C1112.384399,635.991028 1108.774658,636.674622 1106.413086,637.444580 
	C1105.399048,637.775269 1104.058228,636.996948 1102.969482,637.222534 
	C1089.484985,640.016724 1081.109497,632.515259 1072.853027,623.387268 
	C1063.029541,612.526794 1052.293823,602.491333 1041.937988,592.113770 
	C1041.387207,591.561707 1040.693115,591.152649 1038.842529,589.750061 
	C1038.842529,600.253052 1038.873413,609.647400 1038.827515,619.041504 
	C1038.808838,622.868164 1038.688721,626.697449 1038.493774,630.519287 
	C1038.324585,633.836426 1036.527344,635.865784 1033.151611,635.882996 
	C1028.326904,635.907532 1023.499207,635.694702 1018.675598,635.510559 
	C1014.968079,635.369080 1013.162415,633.053162 1013.236633,629.652710 
	C1014.031982,593.213013 1014.987183,556.776733 1015.735718,520.336182 
	C1015.840088,515.253662 1018.075623,513.514709 1022.827148,513.794373 
	C1026.647705,514.019287 1030.487915,514.038452 1034.316162,513.971313 
	C1038.968994,513.889893 1040.914062,516.097534 1040.875000,520.683411 
	C1040.776489,532.276489 1040.842407,543.870911 1040.842407,555.766968 
	C1051.946045,545.908081 1063.190796,535.923950 1074.689941,525.694702 
z"/>
<path fill="#026735" opacity="1.000000" stroke="none" 
	d="
M572.818298,684.293945 
	C595.273560,698.880798 624.424927,685.306030 630.304810,663.502075 
	C630.347961,663.341919 630.432739,663.193176 630.477356,663.033264 
	C633.603577,651.832214 633.603333,651.832275 645.181702,653.020752 
	C656.416321,654.173950 657.413452,655.512695 655.186951,666.453857 
	C649.086426,696.432434 618.502869,718.270630 587.241089,715.370422 
	C552.615295,712.158020 529.022217,682.701660 529.299500,649.719360 
	C529.578308,616.567261 556.374023,589.814758 589.947388,587.821594 
	C604.305481,586.969177 617.274475,590.559753 628.498047,599.744934 
	C633.220947,603.610046 633.455566,605.870789 629.876038,610.643433 
	C627.679382,613.572327 625.491150,616.508850 623.226379,619.384705 
	C621.026123,622.178589 618.378052,622.662781 615.349854,620.671448 
	C595.892029,607.876282 573.361755,611.427429 561.567139,629.144531 
	C549.297363,647.575378 554.006592,671.199097 572.818298,684.293945 
z"/>
<path fill="#026735" opacity="1.000000" stroke="none" 
	d="
M798.473633,558.246948 
	C789.940491,559.346191 781.860535,560.381348 773.779541,561.408020 
	C769.571838,561.942627 767.100525,560.359009 766.663391,555.886841 
	C766.275513,551.918640 765.580811,547.981445 765.088623,544.022217 
	C764.572021,539.866333 766.107178,537.437256 770.588440,536.877014 
	C796.164795,533.679504 821.726135,530.360840 847.293518,527.091187 
	C851.581848,526.542725 855.881653,526.080139 860.164246,525.491882 
	C865.935730,524.699097 867.566284,525.846313 868.500427,531.755737 
	C869.045471,535.203735 869.485596,538.671753 869.855103,542.143311 
	C870.439392,547.633240 869.014160,549.323486 863.532715,550.027771 
	C853.012268,551.379395 842.496460,552.768005 831.620239,554.188110 
	C833.600342,569.871094 835.524170,585.183472 837.469360,600.493225 
	C839.272095,614.680969 841.151917,628.859131 842.887634,643.054993 
	C843.628479,649.114441 842.561584,650.400269 836.559814,651.351074 
	C833.111145,651.897400 829.645142,652.338501 826.181335,652.784058 
	C820.396057,653.528259 818.656128,652.200012 817.916687,646.396912 
	C814.238037,617.528870 810.579468,588.658203 806.902527,559.789917 
	C806.821350,559.152588 806.604858,558.532471 806.370544,557.572693 
	C803.828308,557.779846 801.377380,557.979614 798.473633,558.246948 
z"/>
<path fill="#026735" opacity="1.000000" stroke="none" 
	d="
M1056.010498,949.010437 
	C1046.817749,961.633301 1038.255493,974.782043 1028.274536,986.747437 
	C1015.491760,1002.071777 1001.572998,1016.449097 988.120422,1031.213379 
	C987.140808,1032.288452 985.970764,1033.189819 984.918579,1034.145264 
	C984.439148,1033.758301 984.138916,1033.597778 983.950012,1033.351807 
	C973.416504,1019.636292 962.892334,1005.913635 952.038818,991.763489 
	C985.031555,973.729919 1019.457703,959.145203 1055.796143,948.730408 
	C1056.072510,949.048157 1056.010498,949.010437 1056.010498,949.010437 
z"/>
<path fill="#A2D6F2" opacity="1.000000" stroke="none" 
	d="
M1057.033569,358.973389 
	C1057.191406,359.134308 1057.312256,359.329773 1057.432983,359.525238 
	C1057.307983,359.487366 1057.182861,359.449463 1056.992920,359.247040 
	C1056.927856,359.082489 1056.996460,359.007904 1057.033569,358.973389 
z"/>
<path fill="#026735" opacity="1.000000" stroke="none" 
	d="
M1056.104980,949.064209 
	C1056.101440,948.835327 1056.065308,948.590332 1056.029175,948.345337 
	C1056.158447,948.496399 1056.287720,948.647400 1056.213867,948.904419 
	C1056.010498,949.010437 1056.072510,949.048157 1056.104980,949.064209 
z"/>
<path fill="#FEFEFE" opacity="1.000000" stroke="none" 
	d="
M899.388428,594.367798 
	C892.806580,571.045532 903.504272,549.892212 924.581543,543.864441 
	C945.246033,537.954712 966.223938,548.854004 972.486816,568.754089 
	C978.846375,588.961243 968.719421,610.620667 949.717407,617.452942 
	C928.735718,624.997131 907.644226,615.444031 899.388428,594.367798 
z"/>
<path fill="#FEFEFE" opacity="1.000000" stroke="none" 
	d="
M738.812378,638.828369 
	C721.444519,654.237610 698.308167,653.549622 683.043762,637.428040 
	C669.100220,622.701477 669.449768,598.426514 683.819763,583.539856 
	C697.871277,568.983154 721.228210,568.090515 736.774841,581.516113 
	C752.197205,594.834412 754.650513,618.366455 742.305054,634.778748 
	C741.306396,636.106384 740.148804,637.314392 738.812378,638.828369 
z"/>
</svg>