<svg xmlns="http://www.w3.org/2000/svg" viewBox="0 0 120 120" width="120" height="120" role="img" aria-label="6sotok — кадастровый участок">
  <defs>
    <pattern id="hatch" patternUnits="userSpaceOnUse" width="5" height="5" patternTransform="rotate(45)">
      <line x1="0" y1="0" x2="0" y2="5" stroke="#066F36" stroke-width="0.7" opacity=".35"/>
    </pattern>
  </defs>
  <path d="M88 14 L44 14 L30 30 L22 52 L20 80 L28 100 L46 108 L72 108 L96 98 L102 80 L96 60 L76 54 L54 58 L42 68 L40 76 L40 52 L50 38 L68 28 L88 24 Z" fill="url(#hatch)" stroke="#066F36" stroke-width="2.2" stroke-linejoin="miter"/>
  <path d="M56 72 L72 72 L80 80 L78 90 L66 94 L52 90 L48 82 Z" fill="#FAFAF7" stroke="#066F36" stroke-width="1.6" stroke-linejoin="miter"/>
  <g fill="#FAFAF7" stroke="#066F36" stroke-width="1.4">
    <circle cx="88" cy="14" r="2.6"/>
    <circle cx="44" cy="14" r="2.6"/>
    <circle cx="30" cy="30" r="2.6"/>
    <circle cx="22" cy="52" r="2.6"/>
    <circle cx="20" cy="80" r="2.6"/>
    <circle cx="28" cy="100" r="2.6"/>
    <circle cx="46" cy="108" r="2.6"/>
    <circle cx="72" cy="108" r="2.6"/>
    <circle cx="96" cy="98" r="2.6"/>
    <circle cx="102" cy="80" r="2.6"/>
    <circle cx="96" cy="60" r="2.6"/>
    <circle cx="76" cy="54" r="2.6"/>
    <circle cx="42" cy="68" r="2.6"/>
    <circle cx="40" cy="52" r="2.6"/>
    <circle cx="68" cy="28" r="2.6"/>
  </g>
</svg>
